# File created by Blade
# Date/Time:  Fri Jan 16 19:00:24 2015
# Frame Rate: 120.000 fps
#------------------------------------------------------
:FULLY-SPECIFIED
:DEGREES
2079
root 16.860234 37.084916 -22.541028 -157.133344 15.257720 -153.549418
Spine -12.860180 21.715993 15.123948
Head 3.373416 -2.255522 10.257449
LeftShoulder -11.840039 -27.079076 15.891630
LeftArm -12.438964 -8.410313 -8.940802
LeftForeArm -5.443367 -0.000000 4.565135
LeftHand -4.369212 0.000000 0.470029
LeftHandThumb1 -26.253704 0.000000 33.147579
RightShoulder -9.202590 -7.551487 1.977994
RightArm 19.992721 42.138063 34.018190
RightForeArm -30.535627 -0.000000 38.418344
RightHand -11.882721 -0.000000 -1.605762
RightHandThumb1 -24.326973 -0.000000 -32.862282
LeftUpLeg -11.841863 23.157026 9.026829
LeftLeg -4.355730 -0.000000 0.000000
LeftFoot -21.833501 29.229602 -11.103026
LeftToeBase 20.608592 -0.000000 -0.000000
RightUpLeg -28.064992 -31.388789 -19.438636
RightLeg 100.792868 -0.000000 -0.000000
RightFoot 33.435318 -41.976535 -17.822183
RightToeBase 21.574154 -0.000000 -0.000000
2080
root 16.888018 37.088186 -22.555291 -156.760230 15.339856 -153.483633
Spine -13.207588 21.924135 14.781447
Head 3.302812 -2.349330 10.453651
LeftShoulder -11.839000 -27.123090 16.088429
LeftArm -12.652261 -8.288785 -8.937452
LeftForeArm -5.480023 -0.000000 4.589862
LeftHand -4.401353 -0.000000 0.564273
LeftHandThumb1 -26.253704 0.000000 33.147579
RightShoulder -9.166436 -7.426623 2.052714
RightArm 19.915678 42.133645 34.033002
RightForeArm -30.583157 -0.000000 38.161741
RightHand -12.012764 0.000000 -1.826955
RightHandThumb1 -24.326973 -0.000000 -32.862282
LeftUpLeg -12.070236 23.116507 9.025714
LeftLeg -4.461443 -0.000000 0.000000
LeftFoot -21.798581 29.389325 -11.101130
LeftToeBase 20.477910 -0.000000 -0.000000
RightUpLeg -26.947760 -30.617308 -19.661990
RightLeg 100.666056 -0.000000 -0.000000
RightFoot 33.567666 -41.927874 -17.970491
RightToeBase 20.878342 -0.000000 -0.000000
2081
root 16.914085 37.089887 -22.568559 -156.385903 15.368235 -153.452789
Spine -13.584460 22.069017 14.458846
Head 3.287904 -2.403686 10.560576
LeftShoulder -11.821981 -27.067904 16.180367
LeftArm -12.820216 -8.276430 -8.868447
LeftForeArm -5.547312 -0.000000 4.599258
LeftHand -4.443650 0.000000 0.605323
LeftHandThumb1 -26.253704 0.000000 33.147579
RightShoulder -9.228037 -7.502089 2.118301
RightArm 20.065590 42.336688 34.234727
RightForeArm -31.001462 -0.000000 38.006991
RightHand -11.836802 -0.000000 -1.411573
RightHandThumb1 -24.326973 -0.000000 -32.862282
LeftUpLeg -12.356616 23.080143 8.967451
LeftLeg -4.554457 -0.000000 0.000000
LeftFoot -21.767431 29.542020 -11.100122
LeftToeBase 20.242849 -0.000000 -0.000000
RightUpLeg -25.858549 -29.972226 -19.859930
RightLeg 100.504325 -0.000000 -0.000000
RightFoot 33.319180 -42.298816 -17.578946
RightToeBase 20.718219 -0.000000 -0.000000
2082
root 16.944302 37.090044 -22.581815 -156.052026 15.418086 -153.400130
Spine -13.873272 22.208069 14.181681
Head 3.210304 -2.410037 10.647743
LeftShoulder -11.859649 -27.009023 16.283128
LeftArm -12.966609 -8.266642 -8.815097
LeftForeArm -5.549696 -0.000000 4.596369
LeftHand -4.409822 0.000000 0.538699
LeftHandThumb1 -26.253704 0.000000 33.147579
RightShoulder -9.276476 -7.517509 2.195282
RightArm 20.054637 42.182298 34.137418
RightForeArm -30.595373 -0.000000 37.818007
RightHand -11.883379 0.000000 -1.643696
RightHandThumb1 -24.326973 -0.000000 -32.862282
LeftUpLeg -12.588172 23.066247 8.944711
LeftLeg -4.647316 -0.000000 0.000000
LeftFoot -21.828435 29.683982 -11.192583
LeftToeBase 20.339854 -0.000000 -0.000000
RightUpLeg -24.765471 -29.319181 -20.003629
RightLeg 100.370176 -0.000000 -0.000000
RightFoot 33.531103 -42.372242 -17.906530
RightToeBase 20.272373 -0.000000 -0.000000
2083
root 16.971716 37.091508 -22.591885 -155.633592 15.445356 -153.332257
Spine -14.264130 22.379152 13.891054
Head 3.127498 -2.471572 10.731761
LeftShoulder -11.917600 -26.966365 16.412016
LeftArm -13.073597 -8.322587 -8.789574
LeftForeArm -5.527483 -0.000000 4.582990
LeftHand -4.347348 -0.000000 0.542911
LeftHandThumb1 -26.253704 0.000000 33.147579
RightShoulder -9.260375 -7.400719 2.220233
RightArm 19.721628 42.095813 33.942259
RightForeArm -30.451397 -0.000000 37.843814
RightHand -11.899759 -0.000000 -1.471196
RightHandThumb1 -24.326973 -0.000000 -32.862282
LeftUpLeg -12.925014 23.071603 8.901862
LeftLeg -4.721651 -0.000000 0.000000
LeftFoot -21.826359 29.824181 -11.179946
LeftToeBase 20.275804 -0.000000 -0.000000
RightUpLeg -23.785891 -28.689658 -20.065149
RightLeg 100.242597 -0.000000 -0.000000
RightFoot 33.273180 -42.628941 -17.723735
RightToeBase 20.771031 -0.000000 -0.000000
2084
root 16.999082 37.091201 -22.602100 -155.252851 15.522429 -153.296915
Spine -14.631032 22.556172 13.558406
Head 3.093961 -2.500386 10.823729
LeftShoulder -11.951717 -26.818793 16.469389
LeftArm -13.127855 -8.391516 -8.729693
LeftForeArm -5.536839 -0.000000 4.536540
LeftHand -4.372151 -0.000000 0.551725
LeftHandThumb1 -26.253704 0.000000 33.147579
RightShoulder -9.339182 -7.502294 2.303933
RightArm 19.932814 42.232681 34.114458
RightForeArm -30.532318 -0.000000 37.677925
RightHand -12.042132 -0.000000 -1.515079
RightHandThumb1 -24.326973 -0.000000 -32.862282
LeftUpLeg -13.221108 23.109571 8.823748
LeftLeg -4.788221 -0.000000 0.000000
LeftFoot -21.827829 29.950977 -11.158054
LeftToeBase 20.239766 -0.000000 -0.000000
RightUpLeg -22.839379 -28.070351 -20.143819
RightLeg 100.144576 -0.000000 -0.000000
RightFoot 33.129200 -42.885146 -17.638967
RightToeBase 21.151791 -0.000000 -0.000000
2085
root 17.029424 37.091941 -22.611251 -154.866096 15.543487 -153.221663
Spine -14.979535 22.730353 13.261026
Head 2.954714 -2.591189 10.974540
LeftShoulder -11.952556 -26.901094 16.626259
LeftArm -13.373009 -8.313202 -8.690989
LeftForeArm -5.570037 -0.000000 4.641179
LeftHand -4.362597 -0.000000 0.557701
LeftHandThumb1 -26.253704 0.000000 33.147579
RightShoulder -9.319815 -7.366443 2.351255
RightArm 19.733607 42.356530 34.067142
RightForeArm -30.680995 -0.000000 37.479517
RightHand -11.771483 -0.000000 -1.599272
RightHandThumb1 -24.326973 -0.000000 -32.862282
LeftUpLeg -13.506801 23.034167 8.834322
LeftLeg -4.862564 -0.000000 0.000000
LeftFoot -21.836728 30.142595 -11.127539
LeftToeBase 19.994144 -0.000000 -0.000000
RightUpLeg -21.895865 -27.505324 -20.124213
RightLeg 100.075502 -0.000000 -0.000000
RightFoot 33.574443 -42.699061 -18.183657
RightToeBase 20.612445 -0.000000 -0.000000
2086
root 17.059571 37.094307 -22.617447 -154.468452 15.581872 -153.160532
Spine -15.333046 22.889555 12.966451
Head 2.841021 -2.660489 11.055439
LeftShoulder -11.978052 -26.932505 16.756531
LeftArm -13.580953 -8.318672 -8.652505
LeftForeArm -5.547811 -0.000000 4.715420
LeftHand -4.400385 -0.000000 0.570485
LeftHandThumb1 -26.253704 0.000000 33.147579
RightShoulder -9.396099 -7.414717 2.473832
RightArm 19.753310 42.349476 33.974123
RightForeArm -30.477391 -0.000000 37.393562
RightHand -11.864903 -0.000000 -1.603206
RightHandThumb1 -24.326973 -0.000000 -32.862282
LeftUpLeg -13.810642 22.897029 8.848151
LeftLeg -4.904806 -0.000000 0.000000
LeftFoot -21.870024 30.374938 -11.132534
LeftToeBase 20.136270 -0.000000 -0.000000
RightUpLeg -21.014143 -26.968454 -20.089450
RightLeg 99.990590 -0.000000 -0.000000
RightFoot 33.785807 -42.868232 -18.369957
RightToeBase 20.487247 -0.000000 -0.000000
2087
root 17.089675 37.097092 -22.624267 -154.086235 15.624135 -153.114032
Spine -15.668115 23.064089 12.651356
Head 2.696056 -2.683852 11.156713
LeftShoulder -12.037587 -26.876722 16.807957
LeftArm -13.621637 -8.343410 -8.590506
LeftForeArm -5.651874 -0.000000 4.693622
LeftHand -4.469649 -0.000000 0.741431
LeftHandThumb1 -26.253704 0.000000 33.147579
RightShoulder -9.482872 -7.394027 2.570596
RightArm 19.685226 42.318739 33.906428
RightForeArm -30.269246 -0.000000 37.410246
RightHand -11.945566 0.000000 -1.748345
RightHandThumb1 -24.326973 -0.000000 -32.862282
LeftUpLeg -14.107325 22.783887 8.852518
LeftLeg -4.930431 -0.000000 0.000000
LeftFoot -21.887814 30.539377 -11.147617
LeftToeBase 20.062241 -0.000000 -0.000000
RightUpLeg -20.143426 -26.428440 -20.060694
RightLeg 99.902760 -0.000000 -0.000000
RightFoot 33.780658 -43.210409 -18.172359
RightToeBase 20.828827 -0.000000 -0.000000
2088
root 17.118878 37.101000 -22.625871 -153.694624 15.663836 -153.070285
Spine -15.987086 23.224582 12.338539
Head 2.515298 -2.740381 11.263339
LeftShoulder -12.083100 -26.870435 16.914407
LeftArm -13.799106 -8.382999 -8.570621
LeftForeArm -5.549535 -0.000000 4.792239
LeftHand -4.388080 -0.000000 0.544321
LeftHandThumb1 -26.253704 0.000000 33.147579
RightShoulder -9.519004 -7.349004 2.655951
RightArm 19.582456 42.430684 33.840317
RightForeArm -30.387359 -0.000000 37.330525
RightHand -11.908777 0.000000 -1.637449
RightHandThumb1 -24.326973 -0.000000 -32.862282
LeftUpLeg -14.445783 22.665976 8.846743
LeftLeg -4.934024 -0.000000 0.000000
LeftFoot -21.938218 30.752042 -11.223180
LeftToeBase 19.998187 -0.000000 -0.000000
RightUpLeg -19.319525 -25.927493 -19.994407
RightLeg 99.859739 -0.000000 -0.000000
RightFoot 33.958437 -43.298427 -18.206454
RightToeBase 20.863116 -0.000000 -0.000000
2089
root 17.150183 37.106638 -22.628809 -153.308005 15.686167 -153.008546
Spine -16.311041 23.386878 12.047702
Head 2.344987 -2.769460 11.356764
LeftShoulder -12.108093 -26.838335 17.026050
LeftArm -13.977598 -8.421348 -8.583500
LeftForeArm -5.675692 -0.000000 4.864326
LeftHand -4.372352 -0.000000 0.642166
LeftHandThumb1 -26.253704 0.000000 33.147579
RightShoulder -9.555793 -7.374909 2.717989
RightArm 19.489693 42.565299 33.864642
RightForeArm -30.405109 -0.000000 37.356259
RightHand -11.934755 -0.000000 -1.729364
RightHandThumb1 -24.326973 -0.000000 -32.862282
LeftUpLeg -14.764852 22.507316 8.892948
LeftLeg -4.927700 -0.000000 0.000000
LeftFoot -21.998230 30.965141 -11.302584
LeftToeBase 19.971149 -0.000000 -0.000000
RightUpLeg -18.484156 -25.446320 -19.890574
RightLeg 99.822182 -0.000000 -0.000000
RightFoot 33.993682 -43.424816 -18.071139
RightToeBase 21.142569 -0.000000 -0.000000
2090
root 17.182091 37.114021 -22.630128 -152.955008 15.701457 -152.930499
Spine -16.562323 23.532768 11.817713
Head 2.154838 -2.823424 11.445916
LeftShoulder -12.111032 -26.838464 17.109968
LeftArm -14.216654 -8.418856 -8.581294
LeftForeArm -5.713941 0.000000 4.958158
LeftHand -4.431882 -0.000000 0.718590
LeftHandThumb1 -26.253704 0.000000 33.147579
RightShoulder -9.597970 -7.358175 2.761214
RightArm 19.420524 42.689194 33.899948
RightForeArm -30.438186 -0.000000 37.379619
RightHand -11.922831 -0.000000 -1.744172
RightHandThumb1 -24.326973 -0.000000 -32.862282
LeftUpLeg -15.080384 22.447484 8.944799
LeftLeg -4.877757 -0.000000 0.000000
LeftFoot -22.050373 31.074565 -11.332088
LeftToeBase 19.966097 -0.000000 -0.000000
RightUpLeg -17.625955 -24.966151 -19.765349
RightLeg 99.754059 -0.000000 -0.000000
RightFoot 34.402821 -43.381920 -18.310734
RightToeBase 21.083492 -0.000000 -0.000000
2091
root 17.214164 37.121586 -22.635117 -152.610549 15.726622 -152.873690
Spine -16.833243 23.704206 11.541533
Head 1.983867 -2.846570 11.551137
LeftShoulder -12.125969 -26.794774 17.209817
LeftArm -14.384313 -8.523165 -8.620694
LeftForeArm -5.743279 -0.000000 5.012458
LeftHand -4.414856 -0.000000 0.813636
LeftHandThumb1 -26.253704 0.000000 33.147579
RightShoulder -9.680966 -7.343205 2.825941
RightArm 19.372899 42.747246 33.923948
RightForeArm -30.401827 -0.000000 37.345184
RightHand -12.052872 0.000000 -1.938519
RightHandThumb1 -24.326973 -0.000000 -32.862282
LeftUpLeg -15.323865 22.286257 9.009626
LeftLeg -4.917897 -0.000000 0.000000
LeftFoot -22.061611 31.268599 -11.403243
LeftToeBase 19.935128 -0.000000 -0.000000
RightUpLeg -16.772651 -24.494648 -19.660246
RightLeg 99.704614 -0.000000 -0.000000
RightFoot 34.633565 -43.333294 -18.286105
RightToeBase 21.109913 -0.000000 -0.000000
